<svg width="35" height="35" viewBox="0 0 35 35" fill="none" xmlns="http://www.w3.org/2000/svg">
<path d="M17.5 11.4844C16.3102 11.4844 15.1472 11.8372 14.1579 12.4982C13.1686 13.1592 12.3976 14.0987 11.9423 15.1979C11.487 16.2971 11.3678 17.5067 11.6 18.6736C11.8321 19.8405 12.405 20.9124 13.2463 21.7537C14.0876 22.595 15.1595 23.1679 16.3264 23.4C17.4933 23.6321 18.7029 23.513 19.8021 23.0577C20.9013 22.6024 21.8408 21.8314 22.5018 20.8421C23.1628 19.8528 23.5156 18.6898 23.5156 17.5C23.5138 15.9051 22.8794 14.3761 21.7517 13.2483C20.6239 12.1206 19.0949 11.4862 17.5 11.4844ZM17.5 22.4219C16.5265 22.4219 15.575 22.1332 14.7656 21.5924C13.9562 21.0516 13.3253 20.2829 12.9528 19.3835C12.5803 18.4842 12.4828 17.4945 12.6727 16.5398C12.8626 15.585 13.3314 14.708 14.0197 14.0197C14.708 13.3314 15.585 12.8626 16.5398 12.6727C17.4945 12.4828 18.4842 12.5803 19.3835 12.9528C20.2829 13.3253 21.0516 13.9562 21.5924 14.7656C22.1332 15.575 22.4219 16.5265 22.4219 17.5C22.4204 18.8049 21.9014 20.056 20.9787 20.9787C20.056 21.9014 18.8049 22.4204 17.5 22.4219ZM23.5156 4.375H11.4844C9.59951 4.37713 7.79245 5.12684 6.45965 6.45965C5.12684 7.79245 4.37713 9.59951 4.375 11.4844V23.5156C4.37713 25.4005 5.12684 27.2075 6.45965 28.5404C7.79245 29.8732 9.59951 30.6229 11.4844 30.625H23.5156C25.4005 30.6229 27.2076 29.8732 28.5404 28.5404C29.8732 27.2075 30.6229 25.4005 30.625 23.5156V11.4844C30.6229 9.59951 29.8732 7.79245 28.5404 6.45965C27.2076 5.12684 25.4005 4.37713 23.5156 4.375ZM29.5312 23.5156C29.5294 25.1105 28.8951 26.6396 27.7673 27.7673C26.6396 28.8951 25.1105 29.5294 23.5156 29.5312H11.4844C9.88949 29.5294 8.36044 28.8951 7.23268 27.7673C6.10493 26.6396 5.47056 25.1105 5.46875 23.5156V11.4844C5.47056 9.88949 6.10493 8.36044 7.23268 7.23268C8.36044 6.10493 9.88949 5.47056 11.4844 5.46875H23.5156C25.1105 5.47056 26.6396 6.10493 27.7673 7.23268C28.8951 8.36044 29.5294 9.88949 29.5312 11.4844V23.5156ZM25.7031 10.3906C25.7031 10.6069 25.639 10.8184 25.5188 10.9983C25.3986 11.1781 25.2278 11.3183 25.0279 11.4011C24.8281 11.4839 24.6082 11.5056 24.396 11.4634C24.1838 11.4212 23.9889 11.317 23.836 11.164C23.683 11.0111 23.5788 10.8162 23.5366 10.604C23.4944 10.3918 23.5161 10.1719 23.5989 9.97206C23.6817 9.77221 23.8219 9.60139 24.0017 9.4812C24.1816 9.36102 24.3931 9.29687 24.6094 9.29687C24.8993 9.29724 25.1773 9.41259 25.3824 9.61763C25.5874 9.82267 25.7028 10.1007 25.7031 10.3906Z" fill="white"/>
</svg>
