<svg width="28" height="54" viewBox="0 0 28 54" fill="none" xmlns="http://www.w3.org/2000/svg">
<path d="M7.29605 1L1.00019 4.71559V12.1468V19.4232V26.6995L7.29605 30.6215L13.6951 34.3371V41.8715L7.34766 38.0527L1.00019 34.2339V41.8715L7.36486 45.5871L13.7295 49.3027L20.0942 53.0183L26.6997 49.3027V41.8715L20.0942 45.2775V38.0527L26.6997 34.2339V27.1124L20.0942 30.6215L13.6951 26.8962L7.29605 23.1708V15.7201L13.6951 19.352L20.0942 23.3199L26.6997 19.578V12.1468L20.1974 8.41142L13.6951 4.67607L7.29605 1Z" fill="#4E5EFF"/>
<path d="M26.6997 12.1468V19.578L20.0942 23.3199M26.6997 12.1468L20.0942 15.7201M26.6997 12.1468L20.1974 8.41142M1.00019 4.71559L7.29605 1L13.6951 4.67607M1.00019 4.71559V12.1468M1.00019 4.71559L7.34766 8.32798M1.00019 12.1468L7.29605 15.7201M1.00019 12.1468V19.4232M20.0942 23.3199L13.6951 19.352M20.0942 23.3199V15.7201M7.29605 30.6215L1.00019 26.6995V19.4232M7.29605 30.6215V23.1708M7.29605 30.6215L13.6951 34.3371M7.29605 15.7201V23.1708M7.29605 15.7201L13.6951 19.352M7.29605 15.7201L7.34766 8.32798M20.0942 30.6215L26.6997 27.1124V34.2339L20.0942 38.0527M20.0942 30.6215L13.6951 26.8962M20.0942 30.6215V38.0527M7.29605 23.1708L1.00019 19.4232M7.29605 23.1708L13.6951 26.8962M20.0942 38.0527V45.2775M20.0942 38.0527L13.6951 34.3371M20.0942 45.2775L26.6997 41.8715V49.3027L20.0942 53.0183M20.0942 45.2775L13.6951 41.8715M20.0942 45.2775V53.0183M13.6951 34.3371V41.8715M13.6951 34.3371V26.8962M13.6951 41.8715L13.7295 49.3027M13.6951 41.8715L7.34766 38.0527M20.0942 53.0183L13.7295 49.3027M13.7295 49.3027L7.36486 45.5871M7.34766 38.0527L1.00019 34.2339V41.8715L7.36486 45.5871M7.34766 38.0527L7.36486 45.5871M13.6951 19.352L13.7295 12.1468M20.0942 15.7201L13.7295 12.1468M13.7295 12.1468L7.34766 8.32798M13.7295 12.1468L20.1974 8.41142M7.34766 8.32798L13.6951 4.67607M13.6951 4.67607L20.1974 8.41142" stroke="black"/>
<path d="M26.6997 27.0092V19.578L20.0942 23.2936L13.6951 19.3716L7.29605 15.7592V23.1653L13.6951 26.906L20.0942 30.6216V38.0631V45.2775V53.0183L26.6997 49.3027V41.8715V34.2339V27.0092Z" fill="white"/>
<path d="M7.29605 38.0631L13.6951 41.8715V34.3372L7.29605 30.6216L1.00019 26.6995V34.2339L7.29605 38.0631Z" fill="white"/>
<path d="M26.6997 19.578L26.4546 19.1422L27.1997 18.7231V19.578H26.6997ZM13.6951 26.906L13.4441 27.3384L13.4428 27.3376L13.6951 26.906ZM13.6951 19.3716L13.9409 18.9362L13.9488 18.9406L13.9564 18.9453L13.6951 19.3716ZM7.29605 15.7592H6.79605V14.9028L7.54185 15.3238L7.29605 15.7592ZM7.29605 23.1653L7.04372 23.597L6.79605 23.4522V23.1653H7.29605ZM7.29605 38.0631L7.04032 38.4927L7.03624 38.4903L7.29605 38.0631ZM13.6951 41.8715H14.1951V42.751L13.4394 42.3012L13.6951 41.8715ZM13.6951 34.3372L13.9462 33.9048L14.1951 34.0493V34.3372H13.6951ZM1.00019 26.6995H0.500187V25.799L1.26456 26.2752L1.00019 26.6995ZM1.00019 34.2339L0.74037 34.6611L0.500187 34.5151V34.2339H1.00019ZM26.6997 49.3027H27.1997V49.5952L26.9448 49.7385L26.6997 49.3027ZM20.0942 53.0183L20.3393 53.4541C20.1845 53.5412 19.9951 53.5396 19.8418 53.4499C19.6885 53.3603 19.5942 53.196 19.5942 53.0183H20.0942ZM27.1997 19.578V27.0092H26.1997V19.578H27.1997ZM26.9396 27.4479L20.3341 31.0602L19.8543 30.1829L26.4598 26.5705L26.9396 27.4479ZM19.5942 30.6216V23.2936H20.5942V30.6216H19.5942ZM19.8491 22.8578L26.4546 19.1422L26.9448 20.0138L20.3393 23.7294L19.8491 22.8578ZM19.8431 31.054L13.4441 27.3384L13.9462 26.4736L20.3453 30.1892L19.8431 31.054ZM13.1951 26.906V19.3716H14.1951V26.906H13.1951ZM13.9564 18.9453L20.3555 22.8673L19.8329 23.7199L13.4339 19.7979L13.9564 18.9453ZM13.4493 19.807L7.05026 16.1946L7.54185 15.3238L13.9409 18.9362L13.4493 19.807ZM7.79605 15.7592V23.1653H6.79605V15.7592H7.79605ZM7.54838 22.7337L13.9475 26.4743L13.4428 27.3376L7.04372 23.597L7.54838 22.7337ZM27.1997 34.2339V41.8715H26.1997V34.2339H27.1997ZM26.9289 42.316L20.3234 45.7219L19.8651 44.8331L26.4706 41.4271L26.9289 42.316ZM19.5942 45.2775V38.0631H20.5942V45.2775H19.5942ZM19.8435 37.6305L26.4489 33.8014L26.9505 34.6665L20.345 38.4956L19.8435 37.6305ZM7.55177 37.6334L13.9508 41.4419L13.4394 42.3012L7.04033 38.4927L7.55177 37.6334ZM13.1951 41.8715V34.3372H14.1951V41.8715H13.1951ZM13.4441 34.7695L7.04498 31.054L7.54712 30.1892L13.9462 33.9048L13.4441 34.7695ZM7.03168 31.0459L0.735813 27.1239L1.26456 26.2752L7.56043 30.1972L7.03168 31.0459ZM1.50019 26.6995V34.2339H0.500187V26.6995H1.50019ZM1.26 33.8067L7.55587 37.6359L7.03624 38.4903L0.74037 34.6611L1.26 33.8067ZM27.1997 27.0092V34.2339H26.1997V27.0092H27.1997ZM19.5942 38.0631V30.6216H20.5942V38.0631H19.5942ZM27.1997 41.8715V49.3027H26.1997V41.8715H27.1997ZM26.9448 49.7385L20.3393 53.4541L19.8491 52.5825L26.4546 48.867L26.9448 49.7385ZM19.5942 53.0183V45.2775H20.5942V53.0183H19.5942ZM7.79605 30.6216V34.3423H6.79605V30.6216H7.79605ZM7.79605 34.3423V38.0631H6.79605V34.3423H7.79605Z" fill="black"/>
</svg>
