<svg width="35" height="35" viewBox="0 0 35 35" fill="none" xmlns="http://www.w3.org/2000/svg">
<path d="M31.2602 4.75338C31.0342 4.55808 30.7591 4.42837 30.4646 4.37834C30.1701 4.32831 29.8676 4.35985 29.5898 4.46955L4.35737 14.3823C4.02757 14.512 3.7486 14.7449 3.5622 15.0463C3.37581 15.3477 3.292 15.7013 3.32332 16.0543C3.35464 16.4072 3.4994 16.7406 3.73595 17.0044C3.9725 17.2683 4.28812 17.4485 4.63559 17.518L11.4844 18.8879V27.3415C11.481 27.6667 11.5758 27.9854 11.7565 28.2559C11.9372 28.5263 12.1954 28.7359 12.4972 28.8572C12.6993 28.9418 12.9162 28.9858 13.1354 28.9864C13.3496 28.9857 13.5615 28.9425 13.7589 28.8593C13.9563 28.7761 14.1352 28.6545 14.2852 28.5016L18.1948 24.592L23.9634 29.6683C24.2606 29.9323 24.6443 30.0783 25.0418 30.0788C25.2147 30.0786 25.3864 30.0514 25.5508 29.9981C25.822 29.9121 26.0658 29.7565 26.2581 29.5468C26.4503 29.3371 26.5842 29.0807 26.6464 28.8032L31.7889 6.3631C31.856 6.07209 31.8422 5.76825 31.749 5.48451C31.6559 5.20077 31.4868 4.94793 31.2602 4.75338ZM4.4126 15.9575C4.39905 15.8394 4.4257 15.7201 4.48827 15.619C4.55083 15.518 4.64565 15.4409 4.75741 15.4003L27.8868 6.31361L11.9044 17.8565L4.8501 16.4456C4.7329 16.4253 4.62595 16.3661 4.54656 16.2775C4.46717 16.189 4.41997 16.0762 4.4126 15.9575ZM13.5116 27.7283C13.4352 27.8047 13.3377 27.8568 13.2316 27.8779C13.1256 27.899 13.0156 27.8881 12.9157 27.8468C12.8158 27.8054 12.7304 27.7353 12.6703 27.6453C12.6102 27.5554 12.5781 27.4497 12.5781 27.3415V19.6492L17.372 23.8679L13.5116 27.7283ZM30.7228 6.11879L25.5801 28.5588C25.5589 28.6512 25.5142 28.7364 25.4501 28.8063C25.3861 28.8761 25.3051 28.9281 25.2149 28.9572C25.1248 28.9863 25.0286 28.9914 24.9358 28.9722C24.8431 28.9529 24.7569 28.9099 24.6858 28.8473L12.9069 18.4816L30.6343 5.67855C30.681 5.74066 30.7131 5.81242 30.7284 5.88858C30.7437 5.96473 30.7418 6.04334 30.7228 6.11865V6.11879Z" fill="white"/>
</svg>
