<svg width="15" height="15" fill="none" xmlns="http://www.w3.org/2000/svg"><path d="M2.767 12.75L1.714.938h11.572L12.232 12.75l-4.739 1.313-4.726-1.311z" fill="#1572B6"/><path d="M7.5 13.058l3.83-1.062.9-10.093H7.5v11.155z" fill="#33A9DC"/><path d="M7.5 6.183h1.917l.132-1.484H7.5V3.25h3.633l-.035.39-.356 3.992H7.5V6.183z" fill="#fff"/><path d="M7.51 9.946l-.007.002-1.614-.436-.103-1.156H4.332l.203 2.275 2.967.824.007-.002V9.947z" fill="#EBEBEB"/><path d="M9.294 7.57L9.12 9.512l-1.616.436v1.507l2.97-.823.022-.244.252-2.816H9.294z" fill="#fff"/><path d="M7.505 3.25V4.7h-3.5l-.029-.326-.066-.735-.035-.389h3.63zM7.5 6.183v1.449H5.907l-.03-.326-.065-.734-.035-.389H7.5z" fill="#EBEBEB"/></svg>