<svg width="15" height="15" fill="none" xmlns="http://www.w3.org/2000/svg"><g clip-path="url(#clip0)"><path d="M7.503 0A7.5 7.5 0 0115 7.5v.003A7.5 7.5 0 117.503 0zm-.039 1.929c-.205.78-.9 1.472-1.627 2.199-1.088 1.09-2.324 2.324-2.324 4.177a3.957 3.957 0 003.947 3.952 3.956 3.956 0 003.956-3.952c0-1.853-1.233-3.086-2.324-4.177l-.097-.098c-.691-.69-1.335-1.356-1.53-2.1zm.054 5.918c.454.483.742.817 1.04 1.18a.656.656 0 01.061.088 1.367 1.367 0 11-2.127-.147c.291-.344.643-.682 1.026-1.121zM5.712 6.033l.191.18.885.906a.1.1 0 010 .133l-.925 1.022-.324.394c-.123.15-.227.315-.311.49a.096.096 0 01-.067.057h-.033c-.09-.007-.193-.173-.193-.173l-.016-.025a1.111 1.111 0 01-.06-.103l-.017-.038a2.345 2.345 0 01-.03-1.268l.013-.044c.098-.347.253-.675.459-.971a6.2 6.2 0 01.428-.56zm1.758-1.83c.236.268.502.537.752.787l.006.017c.524.488.997 1.028 1.414 1.61a2.99 2.99 0 01.554 1.7c0 .263-.04.525-.118.777l-.004.01a.16.16 0 01-.121.098h-.025A.227.227 0 019.8 9.1l-.042-.063a6.956 6.956 0 00-.76-.94l-.362-.381-1.204-1.254c-.203-.195-.566-.546-.72-.737a.186.186 0 00-.016-.03.655.655 0 01-.096-.188V5.47a.62.62 0 01.183-.554c.233-.233.466-.461.687-.712z" fill="#009DDE"/></g><defs><clipPath id="clip0"><path fill="#fff" d="M0 0h15v15H0z"/></clipPath></defs></svg>