<svg width="35" height="35" fill="none" xmlns="http://www.w3.org/2000/svg"><g clip-path="url(#clip0)" fill="#fff"><path d="M17.5-.037C7.83-.037-.04 7.829-.04 17.5c0 9.67 7.869 17.537 17.539 17.537 9.67 0 17.538-7.866 17.538-17.537S27.17-.037 17.5-.037zm0 33.906c-9.026 0-16.368-7.343-16.368-16.37 0-9.025 7.342-16.368 16.368-16.368 9.025 0 16.368 7.343 16.368 16.369S26.525 33.869 17.5 33.869z"/><path d="M21.328 7.656H18.41c-3.717-.037-4.191 2.263-4.191 4.753v1.81h-1.641a.486.486 0 00-.547.546v3.282a.488.488 0 00.547.547h1.64v8.203a.49.49 0 00.55.547h3.342c.323.037.584-.225.482-.547l.002-8.203h2.734a.487.487 0 00.547-.547v-3.282a.486.486 0 00-.547-.546H18.59l.004-1.641c.106-.699.106-.585.754-.547h1.957c.152-.034.314-.015.428-.126.113-.11.18-.261.14-.42V8.202a.486.486 0 00-.545-.547zm-.585 3.22l-1.372-.052c-1.698 0-1.84.922-1.84 1.866l-.005 2.073a.585.585 0 00.584.585h2.671v2.114h-2.669a.585.585 0 00-.585.584v8.204h-2.215v-8.203c0-.323-.22-.584-.543-.584h-1.644V15.35h1.644a.584.584 0 00.413-.171c.11-.11.13-.26.13-.415v-2.357c0-2.452.495-3.62 3.097-3.62h2.333v2.09z"/></g><defs><clipPath id="clip0"><path fill="#fff" d="M0 0h35v35H0z"/></clipPath></defs></svg>