<svg width="7" height="15" fill="none" xmlns="http://www.w3.org/2000/svg"><path d="M5.395 14.543l.148-2.397.41-.678s-.933.37-2.494.37c-1.562 0-2.48-.363-2.48-.363l.46.74.162 2.328c0 .25.849.452 1.897.452 1.047 0 1.897-.203 1.897-.452zM4.926 3.351l.312-1.193L6.963.398 6.508.024 4.682 1.897 4.32 3.323a24.994 24.994 0 00-.817-.013c-1.923 0-3.482.212-3.482.474s1.56.475 3.482.475c1.924 0 3.483-.213 3.483-.475 0-.193-.846-.359-2.06-.433z" fill="#D34A47"/><path d="M4.745 4.02s-.067.014-.266.015c-.198 0-.34-.001-.395-.05a.084.084 0 01-.023-.058c0-.035.025-.055.056-.067l.03.046c-.013.004-.02.01-.02.015 0 .025.203.043.358.041.156-.002.343-.014.343-.04 0-.007-.014-.014-.039-.02l.03-.046c.04.013.076.036.076.076 0 .07-.091.08-.15.087z" fill="#fff"/><path d="M6.96.403C7.002.354 6.936.23 6.811.125c-.124-.104-.26-.15-.304-.101-.043.048.022.173.147.277.125.105.26.15.304.102zM5.311 8.689c-.04-.381.86-.933.63-.951-.498.028-.746.565-.997 1.129-.091.206-.406 1.087-.612.978-.206-.108.267-.832.4-1.262-.153.109-.714.531-.858.136-.233.19-.73.295-.674-.208-.123.212-.4.509-.734.385-.437-.161.254-1.512.425-1.444.172.068-.034.376-.088.496-.12.263-.257.593-.165.66.157.117.585-.438.595-.45.08-.102.308-.773.492-.696.183.077-.459.962-.219 1.138.049.035.247-.022.368-.148.077-.082.05-.263.31-.864.26-.6.492-1.35.67-1.292.179.057.032.44-.032.584-.3.672-.82 1.782-.574 1.698.244-.084.372-.089.611-.36.24-.273.23-.72.389-.71.16.009.133.152.094.262.157-.175.745-.542.887-.178.168.43-.841 1.052-.59 1.02.246-.03.644-.274.813-.496l.468-4.072s-.47.378-3.462.378c-2.991 0-3.413-.37-3.413-.37l.398 3.716c.211-.581.713-1.758 1.503-1.718.36.018.84.689.428.712-.174.01-.191-.335-.397-.386-.149-.037-.356.08-.49.208-.267.253-.84 1.251-.765 1.75.097.634.904-.221 1.04-.475.097-.18.162-.71.372-.654.21.056-.018.603-.17 1.086-.172.543-.262 1.116-.477 1.05-.215-.066.135-.767.123-.89-.202.181-.574.638-1.05.412l.247 2.308s.657.502 2.635.502c1.978 0 2.659-.495 2.659-.495l.307-2.672c-.251.236-1.046.657-1.097.183z" fill="#D34A47"/></svg>