<svg width="35" height="35" fill="none" xmlns="http://www.w3.org/2000/svg"><path d="M17.5 11.484a6.016 6.016 0 106.016 6.016 6.023 6.023 0 00-6.016-6.016zm0 10.938a4.922 4.922 0 110-9.844 4.922 4.922 0 010 9.844zm6.016-18.047H11.484a7.117 7.117 0 00-7.109 7.11v12.03a7.118 7.118 0 007.11 7.11h12.03a7.117 7.117 0 007.11-7.11v-12.03a7.117 7.117 0 00-7.11-7.11zm6.015 19.14a6.022 6.022 0 01-6.015 6.016H11.484a6.022 6.022 0 01-6.015-6.015V11.484a6.023 6.023 0 016.015-6.015h12.032a6.022 6.022 0 016.015 6.015v12.032zm-3.828-13.124a1.094 1.094 0 11-2.188 0 1.094 1.094 0 012.188 0z" fill="#fff"/></svg>