<svg width="190" height="231" fill="none" xmlns="http://www.w3.org/2000/svg"><path d="M0 134.421l94.622-26.535L190 137l-94.622 26.536L0 134.421z" fill="#4E5EFF" fill-opacity=".35"/><path d="M77.148 1L60 11.12v59.881l17.148 10.682 17.43 10.12v20.523l-17.29-10.402L60 91.522v20.804l17.336 10.12 17.336 10.121 17.336 10.12L130 132.567v-20.241l-17.992 9.277v-19.679L130 91.522V72.125l-17.992 9.558-17.43-10.147-17.43-10.147V41.095l17.43 9.892 17.43 10.808L130 51.603V31.362l-17.711-10.175-17.71-10.174L77.148 1z" fill="#4E5EFF"/><path d="M130 31.362v20.24l-17.992 10.193M130 31.362l-17.992 9.733M130 31.362l-17.711-10.175M59.999 11.12L77.15 1l17.43 10.013M60 11.12v20.242m0-20.241l17.29 9.839M60 31.362l17.15 9.733M60 31.362V51.18m52.009 10.614l-17.43-10.808m17.43 10.808v-20.7m-34.86 40.588L60 71V51.18m17.148 30.503V61.39m0 20.294l17.43 10.12m-17.43-50.708V61.39m0-20.294l17.43 9.892m-17.43-9.892l.14-20.135m34.72 60.723L130 72.125v19.397l-17.992 10.402m0-20.24l-17.43-10.148m17.43 10.147v20.241m-34.86-40.535L60 51.18m17.148 10.208l17.43 10.147m17.43 30.388v19.679m0-19.679l-17.43-10.12m17.43 29.799L130 112.326v20.241l-17.992 10.12m0-21.084l-17.43-9.277m17.43 9.277v21.084m-17.43-50.883v20.522m0-20.522V71.536m0 40.79l.094 20.241m-.094-20.241l-17.29-10.402m34.72 40.763l-17.336-10.12m0 0l-17.336-10.121m-.047-20.522l-17.29-10.402v20.804l17.337 10.12m-.047-20.522l.047 20.522m17.242-71.459l.094-19.625m17.336 9.733l-17.336-9.733m0 0L77.289 20.96m17.383 10.402l17.617-10.175m-35-.227l17.29-9.947m0 0l17.71 10.174" stroke="#000"/><path d="M130 71.844V51.603l-17.992 10.12-17.43-10.682-17.43-9.84v20.173l17.43 10.189 17.43 10.12v61.005L130 132.567V71.843z" fill="#fff"/><path d="M77.148 101.952l17.43 10.374V91.804l-17.43-10.12L60 71v20.522l17.148 10.429z" fill="#fff"/><path d="M130 51.603l-.245-.436.745-.42v.856h-.5zm-35.422 19.96l-.25.432h-.002l.252-.432zm0-20.522l.246-.436.008.005.007.004-.26.427zm-17.43-9.84h-.5v-.856l.746.42-.246.436zm0 20.173l-.252.432-.248-.145v-.287h.5zm0 40.578l-.255.43-.005-.002.26-.428zm17.43 10.374h.5v.879l-.756-.449.256-.43zm0-20.522l.251-.433.25.145v.288h-.5zM60 71h-.5v-.9l.764.476-.264.425zm0 20.522l-.26.427-.24-.146v-.281h.5zm70 41.044h.5v.292l-.255.144-.245-.436zm-17.992 10.121l.245.435a.498.498 0 01-.745-.435h.5zM130.5 51.603v20.24h-1v-20.24h1zm-.26 20.68l-17.992 9.839-.48-.877 17.992-9.84.48.878zm-18.732 9.4v-19.96h1v19.96h-1zm.255-20.395l17.992-10.121.49.872-17.992 10.12-.49-.871zm-.006 20.828l-17.43-10.12.502-.866 17.43 10.12-.502.866zM94.078 71.563V51.04h1v20.522h-1zm.761-20.949l17.43 10.683-.522.853-17.43-10.683.522-.853zm-.507.862l-17.43-9.84.492-.87 17.43 9.84-.492.87zM77.648 41.201v20.173h-1V41.201h1zm-.247 19.741l17.43 10.19-.505.862-17.43-10.188.505-.864zm53.099 30.58v20.804h-1V91.523h1zm-.271 21.248l-17.992 9.278-.458-.889 17.992-9.277.458.888zm-18.721 8.833v-19.651h1v19.651h-1zm.249-20.083l17.992-10.43.502.865-17.992 10.43-.502-.865zm-34.353.003l17.43 10.373-.512.86-17.43-10.374.512-.859zm16.674 10.803V91.804h1v20.522h-1zm.25-20.09l-17.43-10.12.501-.865 17.43 10.12-.502.865zM76.883 82.108L59.735 71.425l.53-.849L77.412 81.26l-.529.849zM60.5 71v20.523h-1V71h1zm-.24 20.096l17.148 10.429-.52.855L59.74 91.95l.52-.855zm70.24-19.252v19.679h-1v-19.68h1zm-18.992 30.108V81.683h1v20.269h-1zm18.992 10.374v20.241h-1v-20.241h1zm-.255 20.677l-17.992 10.12-.49-.871 17.992-10.121.49.872zm-18.737 9.685v-21.085h1v21.085h-1zm-33.86-61.005v10.135h-1V81.683h1zm0 10.135v10.134h-1V91.818h1z" fill="#000"/></svg>