<svg width="28" height="54" fill="none" xmlns="http://www.w3.org/2000/svg"><path d="M7.296 1L1 4.716V26.7l6.296 3.922 6.4 3.715v7.534l-6.348-3.818L1 34.233v7.639l6.365 3.715 6.364 3.716 6.365 3.715 6.606-3.715v-7.431l-6.606 3.406v-7.225l6.606-3.82v-7.12l-6.606 3.509-6.399-3.726-6.399-3.725v-7.45l6.4 3.631 6.398 3.968 6.606-3.742v-7.431L20.197 8.41l-6.502-3.735L7.296 1z" fill="#4E5EFF"/><path d="M26.7 12.147v7.431l-6.606 3.742M26.7 12.147l-6.606 3.573m6.606-3.573L20.197 8.41M1 4.716L7.296 1l6.4 3.676M1 4.716v7.43m0-7.43l6.348 3.612M1 12.147l6.296 3.573M1 12.147v7.276m19.094 3.897l-6.399-3.968m6.4 3.968v-7.6m-12.8 14.902L1 26.7v-7.277m6.296 11.199V23.17m0 7.45l6.4 3.716m-6.4-18.617v7.45m0-7.45l6.4 3.632m-6.4-3.632l.052-7.392m12.746 22.294l6.606-3.51v7.122l-6.606 3.819m0-7.431l-6.399-3.726m6.4 3.726v7.43m-12.8-14.879L1 19.423m6.296 3.748l6.4 3.725m6.398 11.157v7.225m0-7.225l-6.399-3.716m6.4 10.94l6.605-3.406v7.432l-6.606 3.715m0-7.74l-6.399-3.407m6.4 3.407v7.74m-6.4-18.68v7.533m0-7.534v-7.44m0 14.974l.034 7.432m-.034-7.431l-6.347-3.82m12.746 14.966l-6.365-3.715m0 0l-6.364-3.716m-.017-7.534L1 34.233v7.639l6.365 3.715m-.017-7.534l.017 7.534m6.33-26.235l.034-7.205m6.365 3.573l-6.365-3.573m0 0L7.348 8.328m6.381 3.819l6.468-3.736m-12.85-.083l6.348-3.652m0 0l6.502 3.735" stroke="#000"/><path d="M26.7 27.01v-7.432l-6.606 3.716-6.399-3.922-6.399-3.613v7.406l6.4 3.741 6.398 3.716v22.396l6.606-3.715V27.009z" fill="#fff"/><path d="M7.296 38.063l6.4 3.808v-7.534l-6.4-3.715L1 26.7v7.534l6.296 3.83z" fill="#fff"/><path d="M26.7 19.578l-.245-.436.745-.419v.855h-.5zm-13.005 7.328l-.25.432h-.002l.252-.432zm0-7.534l.246-.436.008.005.007.004-.26.427zm-6.399-3.613h-.5v-.856l.746.42-.246.436zm0 7.406l-.252.432-.248-.145v-.287h.5zm0 14.898l-.256.43-.004-.003.26-.427zm6.4 3.808h.5v.88l-.757-.45.256-.43zm0-7.534l.25-.432.25.144v.288h-.5zM1 26.7H.5v-.9l.765.476L1 26.7zm0 7.535l-.26.427-.24-.146v-.281H1zm25.7 15.069h.5v.292l-.255.144-.245-.436zm-6.606 3.715l.245.436a.5.5 0 01-.745-.436h.5zm7.106-33.44v7.431h-1v-7.431h1zm-.26 7.87l-6.606 3.612-.48-.877 6.606-3.613.48.878zm-7.346 3.174v-7.328h1v7.328h-1zm.255-7.764l6.606-3.716.49.872-6.606 3.715-.49-.871zm-.006 8.196l-6.399-3.716.502-.864 6.4 3.715-.503.865zm-6.648-4.148v-7.534h1v7.534h-1zm.761-7.96l6.4 3.921-.523.853-6.4-3.922.523-.853zm-.507.861L7.05 16.195l.492-.871 6.399 3.612-.492.871zM7.796 15.76v7.406h-1V15.76h1zm-.248 6.975l6.4 3.74-.505.864-6.4-3.741.505-.863zm19.652 11.5v7.637h-1v-7.637h1zm-.271 8.082l-6.606 3.406-.458-.889 6.606-3.406.458.889zm-7.335 2.962v-7.215h1v7.215h-1zm.25-7.648l6.605-3.829.502.865-6.606 3.83-.502-.866zm-12.292.003l6.399 3.809-.512.86-6.399-3.81.512-.859zm5.643 4.238v-7.534h1v7.534h-1zm.25-7.102l-6.4-3.715.502-.865 6.4 3.716-.503.864zm-6.413-3.723L.736 27.124l.529-.849 6.295 3.922-.528.849zM1.5 26.7v7.534h-1v-7.535h1zm-.24 7.107l6.296 3.829-.52.854L.74 34.661l.52-.854zm25.94-6.798v7.225h-1v-7.225h1zm-7.606 11.054v-7.441h1v7.441h-1zm7.606 3.808v7.432h-1v-7.431h1zm-.255 7.867l-6.606 3.716-.49-.871 6.606-3.716.49.872zm-7.35 3.28v-7.74h1v7.74h-1zm-11.8-22.396v3.72h-1v-3.72h1zm0 3.72v3.721h-1v-3.72h1z" fill="#000"/></svg>