<svg width="15" height="8" fill="none" xmlns="http://www.w3.org/2000/svg"><path d="M7.5 7.976c4.142 0 7.5-1.785 7.5-3.988C15 1.786 11.642 0 7.5 0 3.358 0 0 1.786 0 3.988c0 2.203 3.358 3.988 7.5 3.988z" fill="url(#paint0_radial)"/><path d="M7.5 7.68c3.98 0 7.207-1.653 7.207-3.692S11.48.296 7.5.296.293 1.95.293 3.988C.293 6.028 3.52 7.68 7.5 7.68z" fill="#6181B6"/><path d="M8.96 5.185l.357-1.86c.082-.421.011-.735-.2-.93-.205-.19-.556-.285-1.072-.285h-.621l.176-.925a.125.125 0 00-.024-.1.105.105 0 00-.088-.042h-.855a.12.12 0 00-.117.095L6.135 3.11a1.06 1.06 0 00-.258-.569c-.252-.29-.644-.438-1.178-.438H3.053a.12.12 0 00-.117.095l-.768 4.005a.125.125 0 00.024.101c.023.03.052.042.087.042h.862a.12.12 0 00.117-.095l.187-.966h.64c.333 0 .62-.036.837-.107.229-.077.434-.201.615-.373.147-.136.27-.29.364-.456l-.153.8a.125.125 0 00.024.1c.023.03.052.042.088.042h.855a.12.12 0 00.117-.095l.422-2.193h.586c.252 0 .322.048.346.072.017.017.052.088.011.308l-.34 1.772a.125.125 0 00.024.1c.023.03.053.042.088.042h.879c.053-.018.1-.06.111-.113zm-3.962-1.54c-.053.278-.152.48-.299.592-.146.113-.386.172-.703.172h-.38l.275-1.434h.492c.363 0 .51.077.568.142.077.095.094.279.047.527zm7.617-1.102c-.252-.29-.644-.439-1.177-.439H9.779a.12.12 0 00-.117.095l-.767 4a.125.125 0 00.023.1c.024.03.053.042.088.042h.861a.12.12 0 00.118-.095l.187-.966h.639c.334 0 .62-.035.838-.106.228-.077.433-.202.615-.374.152-.142.281-.302.375-.474.094-.172.164-.361.205-.569.1-.515.023-.918-.229-1.214zm-.896 1.102c-.053.278-.152.48-.299.592-.146.113-.387.172-.703.172h-.38l.274-1.434h.493c.363 0 .51.077.568.142.082.095.1.279.047.528z" fill="#fff"/><path d="M4.383 2.857c.328 0 .545.059.656.183.111.125.135.332.076.629-.058.308-.176.533-.345.663-.17.13-.428.196-.774.196h-.521l.322-1.671h.586zM2.285 6.223h.861l.206-1.061h.738c.328 0 .592-.036.803-.107.21-.07.398-.183.574-.35a1.739 1.739 0 00.539-.977c.094-.474.023-.842-.205-1.108-.229-.267-.592-.397-1.09-.397H3.053l-.768 4zm4.354-5.061h.855l-.205 1.06h.762c.48 0 .808.083.99.255.182.172.234.445.164.824l-.357 1.86H7.98l.34-1.771c.041-.202.024-.338-.04-.41-.065-.07-.212-.112-.428-.112h-.686l-.44 2.294h-.855l.768-4zm4.465 1.695c.328 0 .544.059.656.183.111.125.135.332.076.629-.059.308-.176.533-.346.663-.17.13-.428.196-.773.196h-.522l.323-1.671h.585zM9.006 6.223h.861l.205-1.061h.739c.328 0 .591-.036.802-.107.211-.07.399-.183.575-.35.146-.136.263-.284.351-.444.088-.16.152-.338.188-.533.093-.474.023-.842-.206-1.108-.228-.267-.591-.397-1.09-.397H9.774l-.767 4z" fill="#000004"/><defs><radialGradient id="paint0_radial" cx="0" cy="0" r="1" gradientUnits="userSpaceOnUse" gradientTransform="matrix(9.84934 0 0 9.96121 4.503 1.403)"><stop stop-color="#fff"/><stop offset=".5" stop-color="#4C6B97"/><stop offset="1" stop-color="#231F20"/></radialGradient></defs></svg>