<svg width="30" height="30" fill="none" xmlns="http://www.w3.org/2000/svg"><path d="M11.431 21.049c5.048 0 9.153-4.107 9.153-9.154 0-5.048-4.106-9.155-9.152-9.155-5.047 0-9.154 4.107-9.154 9.155 0 5.047 4.107 9.154 9.153 9.154zm0-17.65c4.684 0 8.494 3.812 8.494 8.497 0 4.683-3.81 8.494-8.494 8.494-4.683 0-8.493-3.81-8.493-8.494 0-4.685 3.81-8.496 8.493-8.496z" fill="#4E5EFF"/><path d="M4.373 12.225a.33.33 0 00.33-.33 6.738 6.738 0 016.73-6.73.33.33 0 000-.66c-4.075 0-7.389 3.314-7.389 7.39a.33.33 0 00.33.33zM27.392 27.26a.33.33 0 00.218-.577l-9.837-8.661a.33.33 0 00-.437.494l9.838 8.661c.06.053.137.083.218.083z" fill="#4E5EFF"/></svg>