<svg width="35" height="35" fill="none" xmlns="http://www.w3.org/2000/svg"><path d="M31.26 4.753a1.636 1.636 0 00-1.67-.283L4.357 14.382a1.641 1.641 0 00.279 3.136l6.848 1.37v8.453a1.616 1.616 0 001.013 1.516 1.619 1.619 0 001.788-.356l3.91-3.909 5.768 5.076a1.627 1.627 0 001.588.33 1.627 1.627 0 001.095-1.195l5.143-22.44a1.637 1.637 0 00-.529-1.61zM4.413 15.957a.529.529 0 01.344-.557l23.13-9.086-15.983 11.543-7.054-1.411a.529.529 0 01-.437-.489zm9.099 11.771a.547.547 0 01-.934-.387V19.65l4.794 4.219-3.86 3.86zm17.21-21.61l-5.142 22.44a.547.547 0 01-.894.29l-11.78-10.366L30.635 5.679a.52.52 0 01.089.44z" fill="#fff"/></svg>